<mxfile host="65bd71144e">
    <diagram id="r7Gv8rpJ0xY6Tb8WSUcO" name="페이지-1">
        <mxGraphModel dx="1118" dy="516" grid="1" gridSize="10" guides="1" tooltips="1" connect="1" arrows="1" fold="1" page="1" pageScale="1" pageWidth="827" pageHeight="1169" math="0" shadow="0">
            <root>
                <mxCell id="0"/>
                <mxCell id="1" parent="0"/>
                <mxCell id="2" value="INTERFACE" style="text;html=1;align=center;verticalAlign=middle;resizable=0;points=[];autosize=1;strokeColor=none;fillColor=none;" vertex="1" parent="1">
                    <mxGeometry x="270" y="50" width="80" height="20" as="geometry"/>
                </mxCell>
                <mxCell id="3" value="function(argument) : returnType" style="text;html=1;align=center;verticalAlign=middle;resizable=0;points=[];autosize=1;strokeColor=none;fillColor=none;" vertex="1" parent="1">
                    <mxGeometry x="220" y="70" width="180" height="20" as="geometry"/>
                </mxCell>
                <mxCell id="5" value="" style="endArrow=none;html=1;" edge="1" parent="1">
                    <mxGeometry width="50" height="50" relative="1" as="geometry">
                        <mxPoint x="200" y="90" as="sourcePoint"/>
                        <mxPoint x="420" y="90" as="targetPoint"/>
                    </mxGeometry>
                </mxCell>
                <mxCell id="6" value="Context" style="text;html=1;align=center;verticalAlign=middle;resizable=0;points=[];autosize=1;strokeColor=none;fillColor=none;" vertex="1" parent="1">
                    <mxGeometry x="280" y="100" width="60" height="20" as="geometry"/>
                </mxCell>
                <mxCell id="15" value="" style="group" vertex="1" connectable="0" parent="1">
                    <mxGeometry x="60" y="130" width="320" height="60" as="geometry"/>
                </mxCell>
                <mxCell id="8" value="" style="rounded=0;whiteSpace=wrap;html=1;" vertex="1" parent="15">
                    <mxGeometry width="320" height="60" as="geometry"/>
                </mxCell>
                <mxCell id="9" value="m2" style="rounded=0;whiteSpace=wrap;html=1;" vertex="1" parent="15">
                    <mxGeometry x="140" y="10" width="50" height="40" as="geometry"/>
                </mxCell>
                <mxCell id="10" value="m3" style="rounded=0;whiteSpace=wrap;html=1;" vertex="1" parent="15">
                    <mxGeometry x="200" y="10" width="50" height="40" as="geometry"/>
                </mxCell>
                <mxCell id="11" value="m4" style="rounded=0;whiteSpace=wrap;html=1;" vertex="1" parent="15">
                    <mxGeometry x="260" y="10" width="50" height="40" as="geometry"/>
                </mxCell>
                <mxCell id="12" value="m1" style="rounded=0;whiteSpace=wrap;html=1;" vertex="1" parent="15">
                    <mxGeometry x="80" y="10" width="50" height="40" as="geometry"/>
                </mxCell>
                <mxCell id="14" value="interface A" style="text;html=1;strokeColor=none;fillColor=none;align=center;verticalAlign=middle;whiteSpace=wrap;rounded=0;" vertex="1" parent="15">
                    <mxGeometry x="12" y="15" width="60" height="30" as="geometry"/>
                </mxCell>
                <mxCell id="21" value="" style="group" vertex="1" connectable="0" parent="1">
                    <mxGeometry x="414" y="130" width="120" height="60" as="geometry"/>
                </mxCell>
                <mxCell id="16" value="" style="rounded=0;whiteSpace=wrap;html=1;" vertex="1" parent="21">
                    <mxGeometry width="120" height="60" as="geometry"/>
                </mxCell>
                <mxCell id="17" value="interfaceB" style="text;html=1;strokeColor=none;fillColor=none;align=center;verticalAlign=middle;whiteSpace=wrap;rounded=0;" vertex="1" parent="21">
                    <mxGeometry width="116" height="30" as="geometry"/>
                </mxCell>
                <mxCell id="18" value="m4" style="text;html=1;strokeColor=none;fillColor=none;align=center;verticalAlign=middle;whiteSpace=wrap;rounded=0;" vertex="1" parent="21">
                    <mxGeometry x="15" y="26" width="30" height="30" as="geometry"/>
                </mxCell>
                <mxCell id="19" value="m5" style="text;html=1;strokeColor=none;fillColor=none;align=center;verticalAlign=middle;whiteSpace=wrap;rounded=0;" vertex="1" parent="21">
                    <mxGeometry x="45" y="26" width="30" height="30" as="geometry"/>
                </mxCell>
                <mxCell id="20" value="m6" style="text;html=1;strokeColor=none;fillColor=none;align=center;verticalAlign=middle;whiteSpace=wrap;rounded=0;" vertex="1" parent="21">
                    <mxGeometry x="75" y="26" width="30" height="30" as="geometry"/>
                </mxCell>
                <mxCell id="22" value="" style="group" vertex="1" connectable="0" parent="1">
                    <mxGeometry x="550" y="130" width="120" height="60" as="geometry"/>
                </mxCell>
                <mxCell id="23" value="" style="rounded=0;whiteSpace=wrap;html=1;" vertex="1" parent="22">
                    <mxGeometry width="120" height="60" as="geometry"/>
                </mxCell>
                <mxCell id="24" value="interfaceC" style="text;html=1;strokeColor=none;fillColor=none;align=center;verticalAlign=middle;whiteSpace=wrap;rounded=0;" vertex="1" parent="22">
                    <mxGeometry width="116" height="30" as="geometry"/>
                </mxCell>
                <mxCell id="25" value="m7" style="text;html=1;strokeColor=none;fillColor=none;align=center;verticalAlign=middle;whiteSpace=wrap;rounded=0;" vertex="1" parent="22">
                    <mxGeometry x="15" y="26" width="30" height="30" as="geometry"/>
                </mxCell>
                <mxCell id="26" value="m8" style="text;html=1;strokeColor=none;fillColor=none;align=center;verticalAlign=middle;whiteSpace=wrap;rounded=0;" vertex="1" parent="22">
                    <mxGeometry x="45" y="26" width="30" height="30" as="geometry"/>
                </mxCell>
                <mxCell id="27" value="m9" style="text;html=1;strokeColor=none;fillColor=none;align=center;verticalAlign=middle;whiteSpace=wrap;rounded=0;" vertex="1" parent="22">
                    <mxGeometry x="75" y="26" width="30" height="30" as="geometry"/>
                </mxCell>
                <mxCell id="32" value="" style="group" vertex="1" connectable="0" parent="1">
                    <mxGeometry x="60" y="220" width="120" height="110" as="geometry"/>
                </mxCell>
                <mxCell id="28" value="" style="rounded=0;whiteSpace=wrap;html=1;" vertex="1" parent="32">
                    <mxGeometry width="120" height="110" as="geometry"/>
                </mxCell>
                <mxCell id="29" value="Class C1" style="text;html=1;strokeColor=none;fillColor=none;align=center;verticalAlign=middle;whiteSpace=wrap;rounded=0;" vertex="1" parent="32">
                    <mxGeometry x="30" width="60" height="30" as="geometry"/>
                </mxCell>
                <mxCell id="30" value="interface A" style="rounded=0;whiteSpace=wrap;html=1;" vertex="1" parent="32">
                    <mxGeometry x="10" y="30" width="100" height="30" as="geometry"/>
                </mxCell>
                <mxCell id="31" value="interface B" style="rounded=0;whiteSpace=wrap;html=1;" vertex="1" parent="32">
                    <mxGeometry x="10" y="70" width="100" height="30" as="geometry"/>
                </mxCell>
                <mxCell id="33" value="" style="group" vertex="1" connectable="0" parent="1">
                    <mxGeometry x="210" y="220" width="120" height="110" as="geometry"/>
                </mxCell>
                <mxCell id="34" value="" style="rounded=0;whiteSpace=wrap;html=1;" vertex="1" parent="33">
                    <mxGeometry width="120" height="110" as="geometry"/>
                </mxCell>
                <mxCell id="35" value="Class C2" style="text;html=1;strokeColor=none;fillColor=none;align=center;verticalAlign=middle;whiteSpace=wrap;rounded=0;" vertex="1" parent="33">
                    <mxGeometry x="30" width="60" height="30" as="geometry"/>
                </mxCell>
                <mxCell id="36" value="interface B" style="rounded=0;whiteSpace=wrap;html=1;" vertex="1" parent="33">
                    <mxGeometry x="10" y="30" width="100" height="30" as="geometry"/>
                </mxCell>
                <mxCell id="37" value="interface C" style="rounded=0;whiteSpace=wrap;html=1;" vertex="1" parent="33">
                    <mxGeometry x="10" y="70" width="100" height="30" as="geometry"/>
                </mxCell>
                <mxCell id="38" value="" style="group" vertex="1" connectable="0" parent="1">
                    <mxGeometry x="60" y="410" width="120" height="70" as="geometry"/>
                </mxCell>
                <mxCell id="39" value="" style="rounded=0;whiteSpace=wrap;html=1;" vertex="1" parent="38">
                    <mxGeometry width="120" height="70" as="geometry"/>
                </mxCell>
                <mxCell id="40" value="Class C1" style="text;html=1;strokeColor=none;fillColor=none;align=center;verticalAlign=middle;whiteSpace=wrap;rounded=0;" vertex="1" parent="38">
                    <mxGeometry x="30" y="5" width="60" height="19.09090909090909" as="geometry"/>
                </mxCell>
                <mxCell id="41" value="interface A" style="rounded=0;whiteSpace=wrap;html=1;" vertex="1" parent="38">
                    <mxGeometry x="10" y="30" width="100" height="30.91" as="geometry"/>
                </mxCell>
                <mxCell id="43" value="" style="group" vertex="1" connectable="0" parent="1">
                    <mxGeometry x="210" y="410" width="120" height="110" as="geometry"/>
                </mxCell>
                <mxCell id="44" value="" style="rounded=0;whiteSpace=wrap;html=1;" vertex="1" parent="43">
                    <mxGeometry width="120" height="70" as="geometry"/>
                </mxCell>
                <mxCell id="45" value="Class C2" style="text;html=1;strokeColor=none;fillColor=none;align=center;verticalAlign=middle;whiteSpace=wrap;rounded=0;" vertex="1" parent="43">
                    <mxGeometry x="30" width="60" height="30" as="geometry"/>
                </mxCell>
                <mxCell id="47" value="interface C" style="rounded=0;whiteSpace=wrap;html=1;" vertex="1" parent="43">
                    <mxGeometry x="10" y="30" width="100" height="30" as="geometry"/>
                </mxCell>
                <mxCell id="42" value="interface B" style="rounded=0;whiteSpace=wrap;html=1;" vertex="1" parent="1">
                    <mxGeometry x="140" y="360" width="100" height="30" as="geometry"/>
                </mxCell>
                <mxCell id="48" style="edgeStyle=none;html=1;entryX=0;entryY=0.25;entryDx=0;entryDy=0;" edge="1" parent="1">
                    <mxGeometry relative="1" as="geometry">
                        <mxPoint x="120" y="410" as="sourcePoint"/>
                        <mxPoint x="140" y="374.5" as="targetPoint"/>
                        <Array as="points">
                            <mxPoint x="120" y="375"/>
                        </Array>
                    </mxGeometry>
                </mxCell>
                <mxCell id="49" style="edgeStyle=none;html=1;entryX=1;entryY=0.5;entryDx=0;entryDy=0;" edge="1" parent="1" source="45" target="42">
                    <mxGeometry relative="1" as="geometry">
                        <Array as="points">
                            <mxPoint x="270" y="375"/>
                        </Array>
                    </mxGeometry>
                </mxCell>
                <mxCell id="50" value="Decorator" style="text;html=1;align=center;verticalAlign=middle;resizable=0;points=[];autosize=1;strokeColor=none;fillColor=none;" vertex="1" parent="1">
                    <mxGeometry x="115" y="580" width="70" height="20" as="geometry"/>
                </mxCell>
            </root>
        </mxGraphModel>
    </diagram>
</mxfile>